<svg width="133" height="24" viewBox="0 0 133 24" fill="none" xmlns="http://www.w3.org/2000/svg">
<path d="M38.2328 15H36.6312C36.5922 15 36.5531 14.9766 36.5297 14.9375L31.4984 6.20312C31.2172 5.73438 30.7484 5.45312 30.2016 5.45312C29.6547 5.47656 29.1703 5.78125 28.9047 6.24219L25.6547 11.8672L27.35 14.8203L27.3656 14.875C27.3656 14.9375 27.3109 15 27.2484 15H25.6547C25.6156 15 25.5687 14.9766 25.5531 14.9375C24.3656 12.8594 24.9203 13.8281 23.7719 11.8672L20.5141 6.20312C20.2328 5.73438 19.7484 5.45312 19.225 5.45312C18.6781 5.47656 18.1937 5.78125 17.9047 6.24219L12.8891 14.9375C12.8734 14.9766 12.8344 15 12.7875 15H11.1937C11.1312 15 11.0766 14.9375 11.0766 14.875L11.0922 14.8203L16.5297 5.39062C17.1 4.42188 18.0922 3.85938 19.2016 3.83594C20.3344 3.83594 21.3656 4.46094 21.9281 5.45312L24.725 10.25L27.4906 5.45312C28.0609 4.46094 29.1078 3.83594 30.2406 3.83594C31.3344 3.85938 32.3422 4.42188 32.8891 5.39062L38.3344 14.8203L38.35 14.8828C38.35 14.9453 38.3031 15 38.2328 15ZM59.2844 15H57.6906C57.6516 15 57.6047 14.9766 57.5891 14.9375L52.55 6.20312C52.2766 5.69531 51.8312 5.49219 51.2609 5.46875C50.7297 5.46875 50.2297 5.78125 49.9641 6.24219L44.9484 14.9375C44.925 14.9766 44.8859 15 44.8469 15H43.2297C43.175 15 43.1203 14.9453 43.1203 14.8906C43.1203 14.8672 43.1281 14.8438 43.1516 14.8203L48.5891 5.39062C49.1359 4.42188 50.1437 3.83594 51.2609 3.83594C52.3937 3.83594 53.4016 4.42188 53.9484 5.39062L59.3859 14.8203L59.4094 14.8828C59.4094 14.9453 59.3625 15 59.2844 15ZM80.3438 15H78.75C78.7109 15 78.6641 14.9766 78.6484 14.9375L73.6094 6.20312C73.3359 5.69531 72.8906 5.49219 72.3203 5.46875C71.7891 5.46875 71.2891 5.78125 71.0234 6.24219L66.0078 14.9375C65.9844 14.9766 65.9453 15 65.9062 15H64.2891C64.2344 15 64.1797 14.9453 64.1797 14.8906C64.1797 14.8672 64.1875 14.8438 64.2109 14.8203L69.6484 5.39062C70.1953 4.42188 71.2031 3.83594 72.3203 3.83594C73.4531 3.83594 74.4609 4.42188 75.0078 5.39062L80.4453 14.8203L80.4688 14.8828C80.4688 14.9453 80.4219 15 80.3438 15ZM99.0906 15H97.4969L94.7078 10.1875C94.6844 10.1484 94.6453 10.125 94.6062 10.125H88.3797C87.8875 10.125 87.4266 10.0078 87.0203 9.80469L86.9812 9.79688C86.9187 9.79688 86.8562 9.83594 86.8562 9.92188V14.875C86.8562 14.9375 86.8016 15 86.7391 15H85.3406C85.2781 15 85.2391 14.9375 85.2391 14.875V6.75C85.3641 5.13281 86.7156 3.83594 88.3797 3.83594H96.0984C97.8172 3.83594 99.2781 5.19531 99.2937 6.91406V6.99219C99.2937 8.55469 98.1375 9.84375 96.6453 10.0859C96.5906 10.1016 96.5516 10.1484 96.5516 10.1953L96.5672 10.25L99.1922 14.8203L99.2078 14.875C99.2078 14.9375 99.1531 15 99.0906 15ZM96.1687 8.5C97.0047 8.5 97.6844 7.82031 97.6844 6.98438C97.6844 6.14062 97.0047 5.46094 96.1687 5.46094H88.3719C87.5359 5.46094 86.8562 6.14062 86.8562 6.98438C86.8562 7.82031 87.5359 8.5 88.3719 8.5H96.1687ZM120.228 15H118.634C118.595 15 118.548 14.9766 118.533 14.9375L113.494 6.20312C113.22 5.69531 112.775 5.49219 112.205 5.46875C111.673 5.46875 111.173 5.78125 110.908 6.24219L105.892 14.9375C105.869 14.9766 105.83 15 105.791 15H104.173C104.119 15 104.064 14.9453 104.064 14.8906C104.064 14.8672 104.072 14.8438 104.095 14.8203L109.533 5.39062C110.08 4.42188 111.088 3.83594 112.205 3.83594C113.338 3.83594 114.345 4.42188 114.892 5.39062L120.33 14.8203L120.353 14.8828C120.353 14.9453 120.306 15 120.228 15Z" fill="black"/>
</svg>
