<svg width="437" height="57" viewBox="0 0 437 57" fill="none" xmlns="http://www.w3.org/2000/svg">
<path d="M28.284 35C28.124 35 27.98 34.944 27.852 34.832C27.74 34.704 27.684 34.56 27.684 34.4V26.792H26.172C26.012 26.792 25.868 26.736 25.74 26.624C25.628 26.496 25.572 26.352 25.572 26.192C25.572 26.016 25.628 25.872 25.74 25.76C25.868 25.648 26.012 25.592 26.172 25.592H27.684V24.44C27.684 23.256 28.028 22.376 28.716 21.8C29.42 21.224 30.372 20.936 31.572 20.936C31.748 20.936 31.884 20.992 31.98 21.104C32.092 21.216 32.148 21.36 32.148 21.536C32.148 21.68 32.092 21.816 31.98 21.944C31.868 22.056 31.732 22.112 31.572 22.112C30.596 22.112 29.9 22.328 29.484 22.76C29.084 23.176 28.884 23.736 28.884 24.44V25.592H31.596C31.772 25.592 31.916 25.648 32.028 25.76C32.14 25.872 32.196 26.016 32.196 26.192C32.196 26.352 32.14 26.496 32.028 26.624C31.916 26.736 31.772 26.792 31.596 26.792H28.884V34.4C28.884 34.56 28.828 34.704 28.716 34.832C28.604 34.944 28.46 35 28.284 35ZM35.46 20.672C35.732 20.672 35.964 20.784 36.156 21.008C36.348 21.216 36.444 21.504 36.444 21.872C36.444 22.24 36.348 22.52 36.156 22.712C35.964 22.904 35.74 23 35.484 23C35.196 23 34.948 22.904 34.74 22.712C34.548 22.504 34.452 22.224 34.452 21.872C34.452 21.504 34.548 21.216 34.74 21.008C34.932 20.784 35.172 20.672 35.46 20.672ZM34.884 26.192C34.884 26.016 34.94 25.872 35.052 25.76C35.18 25.648 35.324 25.592 35.484 25.592C35.66 25.592 35.804 25.648 35.916 25.76C36.028 25.872 36.084 26.016 36.084 26.192V34.4C36.084 34.56 36.028 34.704 35.916 34.832C35.804 34.944 35.66 35 35.484 35C35.324 35 35.18 34.944 35.052 34.832C34.94 34.704 34.884 34.56 34.884 34.4V26.192ZM52.5913 35C52.4313 35 52.2873 34.944 52.1593 34.832C52.0473 34.704 51.9913 34.56 51.9913 34.4V29.6C51.9913 28.608 51.7993 27.896 51.4153 27.464C51.0473 27.016 50.5433 26.792 49.9033 26.792C49.2313 26.792 48.5913 26.976 47.9833 27.344C47.3753 27.696 46.8153 28.128 46.3033 28.64V34.4C46.3033 34.56 46.2473 34.704 46.1353 34.832C46.0233 34.944 45.8793 35 45.7033 35C45.5433 35 45.3993 34.944 45.2713 34.832C45.1593 34.704 45.1033 34.56 45.1033 34.4V26.192C45.1033 26.016 45.1593 25.872 45.2713 25.76C45.3993 25.648 45.5433 25.592 45.7033 25.592C45.8793 25.592 46.0233 25.648 46.1353 25.76C46.2473 25.872 46.3033 26.016 46.3033 26.192V27.056C46.8473 26.624 47.4153 26.272 48.0073 26C48.5993 25.728 49.2313 25.592 49.9033 25.592C50.5113 25.592 51.0633 25.712 51.5593 25.952C52.0553 26.192 52.4473 26.608 52.7353 27.2C53.0393 27.776 53.1913 28.576 53.1913 29.6V34.4C53.1913 34.56 53.1353 34.704 53.0233 34.832C52.9113 34.944 52.7673 35 52.5913 35ZM69.273 35C69.113 35 68.969 34.944 68.841 34.832C68.729 34.704 68.673 34.56 68.673 34.4V33.392C68.209 33.888 67.681 34.28 67.089 34.568C66.513 34.856 65.873 35 65.169 35C64.385 35 63.673 34.816 63.033 34.448C62.409 34.08 61.905 33.56 61.521 32.888C61.153 32.2 60.969 31.4 60.969 30.488C60.969 29.528 61.169 28.68 61.569 27.944C61.985 27.208 62.545 26.632 63.249 26.216C63.969 25.8 64.777 25.592 65.673 25.592C66.249 25.592 66.777 25.672 67.257 25.832C67.753 25.976 68.225 26.184 68.673 26.456V22.136C68.673 21.96 68.729 21.816 68.841 21.704C68.969 21.592 69.113 21.536 69.273 21.536C69.449 21.536 69.593 21.592 69.705 21.704C69.817 21.816 69.873 21.96 69.873 22.136V34.4C69.873 34.56 69.817 34.704 69.705 34.832C69.593 34.944 69.449 35 69.273 35ZM65.169 33.8C65.969 33.8 66.649 33.592 67.209 33.176C67.785 32.76 68.273 32.224 68.673 31.568V27.896C68.225 27.544 67.761 27.272 67.281 27.08C66.817 26.888 66.281 26.792 65.673 26.792C65.001 26.792 64.401 26.952 63.873 27.272C63.345 27.592 62.929 28.032 62.625 28.592C62.321 29.136 62.169 29.768 62.169 30.488C62.169 31.464 62.449 32.264 63.009 32.888C63.585 33.496 64.305 33.8 65.169 33.8ZM89.9602 39.176C89.8162 39.176 89.6722 39.12 89.5282 39.008C89.4002 38.896 89.3362 38.76 89.3362 38.6C89.3362 38.36 89.4402 38.176 89.6482 38.048C90.3202 37.664 90.9682 37.2 91.5922 36.656C92.2162 36.128 92.8242 35.384 93.4162 34.424C92.8082 33.464 92.1602 32.352 91.4722 31.088C90.8002 29.824 90.2082 28.512 89.6962 27.152C89.5682 26.784 89.4802 26.544 89.4322 26.432C89.4002 26.304 89.3842 26.208 89.3842 26.144C89.3842 26.016 89.4402 25.888 89.5522 25.76C89.6642 25.632 89.8002 25.568 89.9602 25.568C90.0882 25.568 90.2082 25.608 90.3202 25.688C90.4322 25.752 90.5122 25.848 90.5602 25.976C91.1202 27.528 91.7122 28.904 92.3362 30.104C92.9602 31.304 93.5442 32.352 94.0882 33.248C94.4722 32.56 94.8482 31.808 95.2162 30.992C95.6002 30.176 95.9522 29.344 96.2722 28.496C96.6082 27.632 96.8882 26.808 97.1122 26.024C97.1922 25.736 97.3842 25.592 97.6882 25.592C97.8642 25.592 98.0082 25.656 98.1202 25.784C98.2322 25.896 98.2882 26.032 98.2882 26.192C98.2882 26.24 98.2562 26.36 98.1922 26.552C98.1442 26.744 98.0962 26.912 98.0482 27.056C97.8242 27.76 97.5282 28.568 97.1602 29.48C96.7922 30.376 96.3922 31.288 95.9602 32.216C95.5442 33.128 95.1202 33.952 94.6882 34.688C93.9842 35.888 93.2642 36.808 92.5282 37.448C91.7922 38.088 91.0242 38.64 90.2242 39.104C90.1602 39.152 90.0722 39.176 89.9602 39.176ZM109.723 25.496C110.699 25.496 111.539 25.72 112.243 26.168C112.963 26.6 113.515 27.192 113.899 27.944C114.299 28.68 114.499 29.504 114.499 30.416C114.499 31.296 114.299 32.088 113.899 32.792C113.515 33.496 112.963 34.056 112.243 34.472C111.539 34.888 110.699 35.096 109.723 35.096C108.763 35.096 107.923 34.888 107.203 34.472C106.483 34.056 105.923 33.488 105.523 32.768C105.139 32.048 104.947 31.248 104.947 30.368C104.947 29.472 105.139 28.656 105.523 27.92C105.907 27.184 106.459 26.6 107.179 26.168C107.899 25.72 108.747 25.496 109.723 25.496ZM109.723 26.696C108.987 26.696 108.347 26.864 107.803 27.2C107.275 27.536 106.867 27.984 106.579 28.544C106.291 29.088 106.147 29.696 106.147 30.368C106.147 31.36 106.467 32.2 107.107 32.888C107.763 33.56 108.635 33.896 109.723 33.896C110.811 33.896 111.675 33.56 112.315 32.888C112.971 32.216 113.299 31.392 113.299 30.416C113.299 29.728 113.155 29.104 112.867 28.544C112.579 27.984 112.163 27.536 111.619 27.2C111.091 26.864 110.459 26.696 109.723 26.696ZM129.765 35C129.605 35 129.461 34.944 129.333 34.832C129.221 34.704 129.165 34.56 129.165 34.4V33.32C128.637 33.816 128.061 34.224 127.437 34.544C126.813 34.848 126.189 35 125.565 35C124.973 35 124.421 34.88 123.909 34.64C123.413 34.4 123.013 33.992 122.709 33.416C122.421 32.824 122.277 32.016 122.277 30.992V26.192C122.277 26.016 122.333 25.872 122.445 25.76C122.573 25.648 122.717 25.592 122.877 25.592C123.053 25.592 123.197 25.648 123.309 25.76C123.421 25.872 123.477 26.016 123.477 26.192V30.992C123.477 31.968 123.661 32.68 124.029 33.128C124.413 33.576 124.925 33.8 125.565 33.8C126.221 33.8 126.869 33.592 127.509 33.176C128.165 32.76 128.717 32.248 129.165 31.64V26.192C129.165 26.016 129.221 25.872 129.333 25.76C129.461 25.648 129.605 25.592 129.765 25.592C129.941 25.592 130.085 25.648 130.197 25.76C130.309 25.872 130.365 26.016 130.365 26.192V34.4C130.365 34.56 130.309 34.704 130.197 34.832C130.085 34.944 129.941 35 129.765 35ZM139.847 35C139.687 35 139.543 34.944 139.415 34.832C139.303 34.704 139.247 34.56 139.247 34.4V26.192C139.247 26.016 139.303 25.872 139.415 25.76C139.543 25.648 139.687 25.592 139.847 25.592C140.023 25.592 140.167 25.648 140.279 25.76C140.391 25.872 140.447 26.016 140.447 26.192V27.608C141.071 26.952 141.735 26.456 142.439 26.12C143.143 25.784 143.823 25.616 144.479 25.616C144.655 25.616 144.791 25.672 144.887 25.784C144.999 25.88 145.055 26.008 145.055 26.168C145.055 26.536 144.879 26.744 144.527 26.792C143.599 26.904 142.815 27.2 142.175 27.68C141.535 28.16 140.959 28.784 140.447 29.552V34.4C140.447 34.56 140.391 34.704 140.279 34.832C140.167 34.944 140.023 35 139.847 35ZM157.864 26.984C157.704 26.936 157.424 26.88 157.024 26.816C156.64 26.752 156.216 26.72 155.752 26.72C154.968 26.72 154.36 26.856 153.928 27.128C153.496 27.4 153.28 27.736 153.28 28.136C153.28 28.488 153.456 28.776 153.808 29C154.176 29.208 154.776 29.352 155.608 29.432L156.568 29.528C157.384 29.608 158.024 29.792 158.488 30.08C158.952 30.368 159.28 30.712 159.472 31.112C159.664 31.496 159.76 31.904 159.76 32.336C159.76 32.768 159.648 33.2 159.424 33.632C159.2 34.048 158.808 34.4 158.248 34.688C157.704 34.96 156.92 35.096 155.896 35.096C155.304 35.096 154.696 35.04 154.072 34.928C153.448 34.8 152.856 34.616 152.296 34.376C152.056 34.264 151.936 34.072 151.936 33.8C151.936 33.656 152 33.528 152.128 33.416C152.256 33.288 152.4 33.224 152.56 33.224C152.592 33.224 152.648 33.24 152.728 33.272C152.808 33.304 152.952 33.36 153.16 33.44C153.464 33.552 153.864 33.656 154.36 33.752C154.856 33.848 155.368 33.896 155.896 33.896C156.76 33.896 157.416 33.752 157.864 33.464C158.328 33.16 158.56 32.784 158.56 32.336C158.56 31.92 158.4 31.568 158.08 31.28C157.76 30.976 157.224 30.792 156.472 30.728L155.512 30.632C154.568 30.536 153.848 30.36 153.352 30.104C152.856 29.832 152.52 29.52 152.344 29.168C152.168 28.816 152.08 28.464 152.08 28.112C152.08 27.712 152.184 27.32 152.392 26.936C152.616 26.536 152.992 26.2 153.52 25.928C154.064 25.656 154.808 25.52 155.752 25.52C156.296 25.52 156.8 25.56 157.264 25.64C157.744 25.704 158.168 25.792 158.536 25.904C158.664 25.92 158.768 25.992 158.848 26.12C158.928 26.232 158.968 26.352 158.968 26.48C158.968 26.656 158.904 26.8 158.776 26.912C158.664 27.024 158.528 27.08 158.368 27.08C158.272 27.08 158.104 27.048 157.864 26.984ZM172.197 35C170.661 35 169.421 34.6 168.477 33.8C167.549 33 167.085 31.872 167.085 30.416C167.085 29.44 167.293 28.592 167.709 27.872C168.125 27.152 168.677 26.592 169.365 26.192C170.069 25.792 170.845 25.592 171.693 25.592C172.541 25.592 173.253 25.76 173.829 26.096C174.405 26.432 174.837 26.848 175.125 27.344C175.429 27.84 175.581 28.328 175.581 28.808C175.581 29.384 175.397 29.88 175.029 30.296C174.677 30.712 174.005 30.92 173.013 30.92H168.309C168.437 31.88 168.853 32.6 169.557 33.08C170.277 33.56 171.157 33.8 172.197 33.8C172.597 33.8 172.957 33.768 173.277 33.704C173.613 33.64 173.869 33.576 174.045 33.512C174.221 33.448 174.333 33.408 174.381 33.392C174.445 33.376 174.493 33.368 174.525 33.368C174.685 33.368 174.821 33.432 174.933 33.56C175.061 33.672 175.125 33.808 175.125 33.968C175.125 34.24 174.997 34.424 174.741 34.52C174.405 34.648 174.013 34.76 173.565 34.856C173.117 34.952 172.661 35 172.197 35ZM171.693 26.792C170.845 26.792 170.109 27.064 169.485 27.608C168.861 28.136 168.477 28.84 168.333 29.72H173.037C173.949 29.72 174.405 29.416 174.405 28.808C174.405 28.312 174.157 27.856 173.661 27.44C173.165 27.008 172.509 26.792 171.693 26.792ZM183.932 22.136C183.932 21.96 183.988 21.816 184.1 21.704C184.228 21.592 184.372 21.536 184.532 21.536C184.708 21.536 184.852 21.592 184.964 21.704C185.076 21.816 185.132 21.96 185.132 22.136V34.4C185.132 34.56 185.076 34.704 184.964 34.832C184.852 34.944 184.708 35 184.532 35C184.372 35 184.228 34.944 184.1 34.832C183.988 34.704 183.932 34.56 183.932 34.4V22.136ZM195.342 35C195.182 35 195.038 34.944 194.91 34.832C194.798 34.704 194.742 34.56 194.742 34.4V26.792H193.23C193.07 26.792 192.926 26.736 192.798 26.624C192.686 26.496 192.63 26.352 192.63 26.192C192.63 26.016 192.686 25.872 192.798 25.76C192.926 25.648 193.07 25.592 193.23 25.592H194.742V24.44C194.742 23.256 195.086 22.376 195.774 21.8C196.478 21.224 197.43 20.936 198.63 20.936C198.806 20.936 198.942 20.992 199.038 21.104C199.15 21.216 199.206 21.36 199.206 21.536C199.206 21.68 199.15 21.816 199.038 21.944C198.926 22.056 198.79 22.112 198.63 22.112C197.654 22.112 196.958 22.328 196.542 22.76C196.142 23.176 195.942 23.736 195.942 24.44V25.592H198.654C198.83 25.592 198.974 25.648 199.086 25.76C199.198 25.872 199.254 26.016 199.254 26.192C199.254 26.352 199.198 26.496 199.086 26.624C198.974 26.736 198.83 26.792 198.654 26.792H195.942V34.4C195.942 34.56 195.886 34.704 195.774 34.832C195.662 34.944 195.518 35 195.342 35ZM207.173 32.912C207.221 33.072 207.261 33.272 207.293 33.512C207.325 33.752 207.341 34.008 207.341 34.28C207.341 34.888 207.237 35.488 207.029 36.08C206.837 36.688 206.565 37.224 206.213 37.688C206.101 37.848 205.941 37.928 205.733 37.928C205.573 37.928 205.429 37.864 205.301 37.736C205.189 37.624 205.133 37.488 205.133 37.328C205.133 37.2 205.173 37.08 205.253 36.968C205.525 36.6 205.741 36.184 205.901 35.72C206.061 35.256 206.141 34.776 206.141 34.28C206.141 33.912 206.117 33.656 206.069 33.512C206.021 33.368 205.997 33.24 205.997 33.128C205.997 32.952 206.053 32.808 206.165 32.696C206.293 32.568 206.429 32.504 206.573 32.504C206.877 32.504 207.077 32.64 207.173 32.912ZM232.434 35C231.266 35 230.202 34.8 229.242 34.4C229.226 34.56 229.162 34.696 229.05 34.808C228.938 34.92 228.802 34.976 228.642 34.976C228.482 34.976 228.338 34.92 228.21 34.808C228.098 34.68 228.042 34.536 228.042 34.376V22.136C228.042 21.96 228.098 21.816 228.21 21.704C228.338 21.592 228.482 21.536 228.642 21.536C228.818 21.536 228.962 21.592 229.074 21.704C229.186 21.816 229.242 21.96 229.242 22.136V27.272C230.33 26.152 231.498 25.592 232.746 25.592C233.514 25.592 234.218 25.792 234.858 26.192C235.498 26.576 236.01 27.12 236.394 27.824C236.778 28.528 236.97 29.36 236.97 30.32C236.97 31.28 236.77 32.112 236.37 32.816C235.986 33.52 235.45 34.064 234.762 34.448C234.09 34.816 233.314 35 232.434 35ZM232.434 33.8C233.426 33.8 234.226 33.488 234.834 32.864C235.458 32.224 235.77 31.376 235.77 30.32C235.77 29.28 235.482 28.432 234.906 27.776C234.33 27.12 233.61 26.792 232.746 26.792C232.106 26.792 231.482 27 230.874 27.416C230.266 27.832 229.722 28.384 229.242 29.072V33.104C229.722 33.328 230.226 33.504 230.754 33.632C231.282 33.744 231.842 33.8 232.434 33.8ZM249.325 35C247.789 35 246.549 34.6 245.605 33.8C244.677 33 244.213 31.872 244.213 30.416C244.213 29.44 244.421 28.592 244.837 27.872C245.253 27.152 245.805 26.592 246.493 26.192C247.197 25.792 247.973 25.592 248.821 25.592C249.669 25.592 250.381 25.76 250.957 26.096C251.533 26.432 251.965 26.848 252.253 27.344C252.557 27.84 252.709 28.328 252.709 28.808C252.709 29.384 252.525 29.88 252.157 30.296C251.805 30.712 251.133 30.92 250.141 30.92H245.437C245.565 31.88 245.981 32.6 246.685 33.08C247.405 33.56 248.285 33.8 249.325 33.8C249.725 33.8 250.085 33.768 250.405 33.704C250.741 33.64 250.997 33.576 251.173 33.512C251.349 33.448 251.461 33.408 251.509 33.392C251.573 33.376 251.621 33.368 251.653 33.368C251.813 33.368 251.949 33.432 252.061 33.56C252.189 33.672 252.253 33.808 252.253 33.968C252.253 34.24 252.125 34.424 251.869 34.52C251.533 34.648 251.141 34.76 250.693 34.856C250.245 34.952 249.789 35 249.325 35ZM248.821 26.792C247.973 26.792 247.237 27.064 246.613 27.608C245.989 28.136 245.605 28.84 245.461 29.72H250.165C251.077 29.72 251.533 29.416 251.533 28.808C251.533 28.312 251.285 27.856 250.789 27.44C250.293 27.008 249.637 26.792 248.821 26.792ZM272.126 39.176C271.982 39.176 271.838 39.12 271.694 39.008C271.566 38.896 271.502 38.76 271.502 38.6C271.502 38.36 271.606 38.176 271.814 38.048C272.486 37.664 273.134 37.2 273.758 36.656C274.382 36.128 274.99 35.384 275.582 34.424C274.974 33.464 274.326 32.352 273.638 31.088C272.966 29.824 272.374 28.512 271.862 27.152C271.734 26.784 271.646 26.544 271.598 26.432C271.566 26.304 271.55 26.208 271.55 26.144C271.55 26.016 271.606 25.888 271.718 25.76C271.83 25.632 271.966 25.568 272.126 25.568C272.254 25.568 272.374 25.608 272.486 25.688C272.598 25.752 272.678 25.848 272.726 25.976C273.286 27.528 273.878 28.904 274.502 30.104C275.126 31.304 275.71 32.352 276.254 33.248C276.638 32.56 277.014 31.808 277.382 30.992C277.766 30.176 278.118 29.344 278.438 28.496C278.774 27.632 279.054 26.808 279.278 26.024C279.358 25.736 279.55 25.592 279.854 25.592C280.03 25.592 280.174 25.656 280.286 25.784C280.398 25.896 280.454 26.032 280.454 26.192C280.454 26.24 280.422 26.36 280.358 26.552C280.31 26.744 280.262 26.912 280.214 27.056C279.99 27.76 279.694 28.568 279.326 29.48C278.958 30.376 278.558 31.288 278.126 32.216C277.71 33.128 277.286 33.952 276.854 34.688C276.15 35.888 275.43 36.808 274.694 37.448C273.958 38.088 273.19 38.64 272.39 39.104C272.326 39.152 272.238 39.176 272.126 39.176ZM291.888 25.496C292.864 25.496 293.704 25.72 294.408 26.168C295.128 26.6 295.68 27.192 296.064 27.944C296.464 28.68 296.664 29.504 296.664 30.416C296.664 31.296 296.464 32.088 296.064 32.792C295.68 33.496 295.128 34.056 294.408 34.472C293.704 34.888 292.864 35.096 291.888 35.096C290.928 35.096 290.088 34.888 289.368 34.472C288.648 34.056 288.088 33.488 287.688 32.768C287.304 32.048 287.112 31.248 287.112 30.368C287.112 29.472 287.304 28.656 287.688 27.92C288.072 27.184 288.624 26.6 289.344 26.168C290.064 25.72 290.912 25.496 291.888 25.496ZM291.888 26.696C291.152 26.696 290.512 26.864 289.968 27.2C289.44 27.536 289.032 27.984 288.744 28.544C288.456 29.088 288.312 29.696 288.312 30.368C288.312 31.36 288.632 32.2 289.272 32.888C289.928 33.56 290.8 33.896 291.888 33.896C292.976 33.896 293.84 33.56 294.48 32.888C295.136 32.216 295.464 31.392 295.464 30.416C295.464 29.728 295.32 29.104 295.032 28.544C294.744 27.984 294.328 27.536 293.784 27.2C293.256 26.864 292.624 26.696 291.888 26.696ZM311.931 35C311.771 35 311.627 34.944 311.499 34.832C311.387 34.704 311.331 34.56 311.331 34.4V33.32C310.803 33.816 310.227 34.224 309.603 34.544C308.979 34.848 308.355 35 307.731 35C307.139 35 306.587 34.88 306.075 34.64C305.579 34.4 305.179 33.992 304.875 33.416C304.587 32.824 304.443 32.016 304.443 30.992V26.192C304.443 26.016 304.499 25.872 304.611 25.76C304.739 25.648 304.883 25.592 305.043 25.592C305.219 25.592 305.363 25.648 305.475 25.76C305.587 25.872 305.643 26.016 305.643 26.192V30.992C305.643 31.968 305.827 32.68 306.195 33.128C306.579 33.576 307.091 33.8 307.731 33.8C308.387 33.8 309.035 33.592 309.675 33.176C310.331 32.76 310.883 32.248 311.331 31.64V26.192C311.331 26.016 311.387 25.872 311.499 25.76C311.627 25.648 311.771 25.592 311.931 25.592C312.107 25.592 312.251 25.648 312.363 25.76C312.475 25.872 312.531 26.016 312.531 26.192V34.4C312.531 34.56 312.475 34.704 312.363 34.832C312.251 34.944 312.107 35 311.931 35ZM322.013 35C321.853 35 321.709 34.944 321.581 34.832C321.469 34.704 321.413 34.56 321.413 34.4V26.192C321.413 26.016 321.469 25.872 321.581 25.76C321.709 25.648 321.853 25.592 322.013 25.592C322.189 25.592 322.333 25.648 322.445 25.76C322.557 25.872 322.613 26.016 322.613 26.192V27.608C323.237 26.952 323.901 26.456 324.605 26.12C325.309 25.784 325.989 25.616 326.645 25.616C326.821 25.616 326.957 25.672 327.053 25.784C327.165 25.88 327.221 26.008 327.221 26.168C327.221 26.536 327.045 26.744 326.693 26.792C325.765 26.904 324.981 27.2 324.341 27.68C323.701 28.16 323.125 28.784 322.613 29.552V34.4C322.613 34.56 322.557 34.704 322.445 34.832C322.333 34.944 322.189 35 322.013 35ZM340.03 26.984C339.87 26.936 339.59 26.88 339.19 26.816C338.806 26.752 338.382 26.72 337.918 26.72C337.134 26.72 336.526 26.856 336.094 27.128C335.662 27.4 335.446 27.736 335.446 28.136C335.446 28.488 335.622 28.776 335.974 29C336.342 29.208 336.942 29.352 337.774 29.432L338.734 29.528C339.55 29.608 340.19 29.792 340.654 30.08C341.118 30.368 341.446 30.712 341.638 31.112C341.83 31.496 341.926 31.904 341.926 32.336C341.926 32.768 341.814 33.2 341.59 33.632C341.366 34.048 340.974 34.4 340.414 34.688C339.87 34.96 339.086 35.096 338.062 35.096C337.47 35.096 336.862 35.04 336.238 34.928C335.614 34.8 335.022 34.616 334.462 34.376C334.222 34.264 334.102 34.072 334.102 33.8C334.102 33.656 334.166 33.528 334.294 33.416C334.422 33.288 334.566 33.224 334.726 33.224C334.758 33.224 334.814 33.24 334.894 33.272C334.974 33.304 335.118 33.36 335.326 33.44C335.63 33.552 336.03 33.656 336.526 33.752C337.022 33.848 337.534 33.896 338.062 33.896C338.926 33.896 339.582 33.752 340.03 33.464C340.494 33.16 340.726 32.784 340.726 32.336C340.726 31.92 340.566 31.568 340.246 31.28C339.926 30.976 339.39 30.792 338.638 30.728L337.678 30.632C336.734 30.536 336.014 30.36 335.518 30.104C335.022 29.832 334.686 29.52 334.51 29.168C334.334 28.816 334.246 28.464 334.246 28.112C334.246 27.712 334.35 27.32 334.558 26.936C334.782 26.536 335.158 26.2 335.686 25.928C336.23 25.656 336.974 25.52 337.918 25.52C338.462 25.52 338.966 25.56 339.43 25.64C339.91 25.704 340.334 25.792 340.702 25.904C340.83 25.92 340.934 25.992 341.014 26.12C341.094 26.232 341.134 26.352 341.134 26.48C341.134 26.656 341.07 26.8 340.942 26.912C340.83 27.024 340.694 27.08 340.534 27.08C340.438 27.08 340.27 27.048 340.03 26.984ZM354.362 35C352.826 35 351.586 34.6 350.642 33.8C349.714 33 349.25 31.872 349.25 30.416C349.25 29.44 349.458 28.592 349.874 27.872C350.29 27.152 350.842 26.592 351.53 26.192C352.234 25.792 353.01 25.592 353.858 25.592C354.706 25.592 355.418 25.76 355.994 26.096C356.57 26.432 357.002 26.848 357.29 27.344C357.594 27.84 357.746 28.328 357.746 28.808C357.746 29.384 357.562 29.88 357.194 30.296C356.842 30.712 356.17 30.92 355.178 30.92H350.474C350.602 31.88 351.018 32.6 351.722 33.08C352.442 33.56 353.322 33.8 354.362 33.8C354.762 33.8 355.122 33.768 355.442 33.704C355.778 33.64 356.034 33.576 356.21 33.512C356.386 33.448 356.498 33.408 356.546 33.392C356.61 33.376 356.658 33.368 356.69 33.368C356.85 33.368 356.986 33.432 357.098 33.56C357.226 33.672 357.29 33.808 357.29 33.968C357.29 34.24 357.162 34.424 356.906 34.52C356.57 34.648 356.178 34.76 355.73 34.856C355.282 34.952 354.826 35 354.362 35ZM353.858 26.792C353.01 26.792 352.274 27.064 351.65 27.608C351.026 28.136 350.642 28.84 350.498 29.72H355.202C356.114 29.72 356.57 29.416 356.57 28.808C356.57 28.312 356.322 27.856 355.826 27.44C355.33 27.008 354.674 26.792 353.858 26.792ZM366.097 22.136C366.097 21.96 366.153 21.816 366.265 21.704C366.393 21.592 366.537 21.536 366.697 21.536C366.873 21.536 367.017 21.592 367.129 21.704C367.241 21.816 367.297 21.96 367.297 22.136V34.4C367.297 34.56 367.241 34.704 367.129 34.832C367.017 34.944 366.873 35 366.697 35C366.537 35 366.393 34.944 366.265 34.832C366.153 34.704 366.097 34.56 366.097 34.4V22.136ZM377.507 35C377.347 35 377.203 34.944 377.075 34.832C376.963 34.704 376.907 34.56 376.907 34.4V26.792H375.395C375.235 26.792 375.091 26.736 374.963 26.624C374.851 26.496 374.795 26.352 374.795 26.192C374.795 26.016 374.851 25.872 374.963 25.76C375.091 25.648 375.235 25.592 375.395 25.592H376.907V24.44C376.907 23.256 377.251 22.376 377.939 21.8C378.643 21.224 379.595 20.936 380.795 20.936C380.971 20.936 381.107 20.992 381.203 21.104C381.315 21.216 381.371 21.36 381.371 21.536C381.371 21.68 381.315 21.816 381.203 21.944C381.091 22.056 380.955 22.112 380.795 22.112C379.819 22.112 379.123 22.328 378.707 22.76C378.307 23.176 378.107 23.736 378.107 24.44V25.592H380.819C380.995 25.592 381.139 25.648 381.251 25.76C381.363 25.872 381.419 26.016 381.419 26.192C381.419 26.352 381.363 26.496 381.251 26.624C381.139 26.736 380.995 26.792 380.819 26.792H378.107V34.4C378.107 34.56 378.051 34.704 377.939 34.832C377.827 34.944 377.683 35 377.507 35Z" fill="black"/>
<g filter="url(#filter0_d_202_2)">
<path d="M409.367 22.3417C408.941 21.9158 408.436 21.578 407.879 21.3476C407.323 21.1171 406.727 20.9985 406.125 20.9985C405.523 20.9985 404.927 21.1171 404.371 21.3476C403.814 21.578 403.309 21.9158 402.883 22.3417L402 23.225L401.117 22.3417C400.257 21.4819 399.091 20.9989 397.875 20.9989C396.659 20.9989 395.493 21.4819 394.633 22.3417C393.774 23.2014 393.291 24.3675 393.291 25.5833C393.291 26.7992 393.774 27.9653 394.633 28.825L402 36.1917L409.367 28.825C409.792 28.3994 410.13 27.894 410.361 27.3378C410.591 26.7816 410.71 26.1854 410.71 25.5833C410.71 24.9813 410.591 24.3851 410.361 23.8289C410.13 23.2727 409.792 22.7673 409.367 22.3417Z" stroke="#1E1E1E" stroke-width="2" stroke-linecap="round" stroke-linejoin="round"/>
</g>
<defs>
<filter id="filter0_d_202_2" x="388" y="18.5" width="28" height="28" filterUnits="userSpaceOnUse" color-interpolation-filters="sRGB">
<feFlood flood-opacity="0" result="BackgroundImageFix"/>
<feColorMatrix in="SourceAlpha" type="matrix" values="0 0 0 0 0 0 0 0 0 0 0 0 0 0 0 0 0 0 127 0" result="hardAlpha"/>
<feOffset dy="4"/>
<feGaussianBlur stdDeviation="2"/>
<feComposite in2="hardAlpha" operator="out"/>
<feColorMatrix type="matrix" values="0 0 0 0 0 0 0 0 0 0 0 0 0 0 0 0 0 0 0.25 0"/>
<feBlend mode="normal" in2="BackgroundImageFix" result="effect1_dropShadow_202_2"/>
<feBlend mode="normal" in="SourceGraphic" in2="effect1_dropShadow_202_2" result="shape"/>
</filter>
</defs>
</svg>
